<svg xmlns="http://www.w3.org/2000/svg" width="24" height="24" viewBox="0 0 24 24"><path d="M0 0h24v24H0V0z" fill="none"/><g fill="#757575"><path d="M12 6.67c-1.43 0-2.77.55-3.77 1.56A5.26 5.26 0 0 0 6.67 12c0 1.16.39 2.23 1.02 3.11.59-1.13 3.01-1.7 4.31-1.7 1.3 0 3.73.56 4.31 1.7.64-.88 1.02-1.95 1.02-3.11 0-1.43-.55-2.76-1.56-3.77A5.278 5.278 0 0 0 12 6.67zm0 6.03c-1.22 0-2.22-.98-2.23-2.21 0-1.22 1-2.21 2.23-2.21s2.23.99 2.23 2.21-1 2.21-2.23 2.21z"/><path d="M12 1L3 5v6c0 5.55 3.84 10.74 9 12 5.16-1.26 9-6.45 9-12V5l-9-4zm4.48 15.48A6.285 6.285 0 0 1 12 18.33c-3.49 0-6.33-2.84-6.33-6.33 0-1.69.66-3.28 1.86-4.48 1.2-1.2 2.79-1.85 4.48-1.85 1.69 0 3.28.66 4.48 1.86 1.2 1.2 1.86 2.79 1.85 4.48a6.373 6.373 0 0 1-1.86 4.47z"/></g></svg>